<svg width="55" height="43" viewBox="0 0 55 43" fill="none" xmlns="http://www.w3.org/2000/svg">
<path d="M15.2756 18.5625L24.3562 18.5625C26.0434 18.5625 27.4117 17.247 27.4117 15.625C27.4117 14.003 26.0434 12.6875 24.3562 12.6875L15.2756 12.6875C13.5881 12.6875 12.22 14.003 12.22 15.625C12.22 17.247 13.5853 18.5625 15.2756 18.5625ZM21.3866 6.8125L24.4421 6.8125C26.1294 6.8125 27.4977 5.49717 27.4977 3.875C27.4977 2.25283 26.1294 0.937503 24.4421 0.937502L21.3866 0.937502C19.6993 0.937502 18.4171 2.25283 18.4171 3.875C18.4171 5.49717 19.6965 6.8125 21.3866 6.8125ZM9.16437 30.3125L24.3562 30.3125C26.0434 30.3125 27.4117 28.997 27.4117 27.375C27.4117 25.753 26.0434 24.4375 24.3562 24.4375L9.16437 24.4375C7.47725 24.4375 6.10877 25.753 6.10877 27.375C6.10877 28.997 7.47415 30.3125 9.16437 30.3125ZM3.05318 42.0625L24.3562 42.0625C26.0434 42.0625 27.4117 40.747 27.4117 39.125C27.4117 37.503 26.0434 36.1875 24.3562 36.1875L3.05318 36.1875C1.36606 36.1875 -0.00241336 37.503 -0.0024135 39.125C-0.00241365 40.747 1.36296 42.0625 3.05318 42.0625ZM40.522 41.1491C41.6793 42.3663 43.8697 42.3663 45.028 41.1491L53.3448 32.3284C54.5704 31.1295 54.4868 29.266 53.2426 28.1736C52.6563 27.6569 51.9163 27.4013 51.1792 27.4013C50.3511 27.4013 49.5273 27.7229 48.9248 28.355L45.831 31.6068L45.831 3.88407C45.831 2.25015 44.4656 0.937504 42.7755 0.937504C41.0853 0.937504 39.7199 2.25283 39.7199 3.87769L39.7199 31.6068L36.6261 28.3572C35.4803 27.1639 33.5515 27.0721 32.3102 28.1736C31.066 29.2706 30.9829 31.1313 32.1222 32.3293L40.522 41.1491Z" fill="#FAFAFA" fill-opacity="0.6"/>
</svg>
