<svg width="55" height="43" viewBox="0 0 55 43" fill="none" xmlns="http://www.w3.org/2000/svg">
<g clip-path="url(#clip0_20_228)">
<path d="M39.7244 24.4375L30.6438 24.4375C28.9566 24.4375 27.5883 25.753 27.5883 27.375C27.5883 28.997 28.9566 30.3125 30.6438 30.3125L39.7244 30.3125C41.4119 30.3125 42.78 28.997 42.78 27.375C42.78 25.753 41.4147 24.4375 39.7244 24.4375ZM33.6134 36.1875L30.5579 36.1875C28.8706 36.1875 27.5023 37.5028 27.5023 39.125C27.5023 40.7472 28.8706 42.0625 30.5579 42.0625L33.6134 42.0625C35.3007 42.0625 36.5829 40.7472 36.5829 39.125C36.5829 37.5028 35.3035 36.1875 33.6134 36.1875ZM45.8357 12.6875L30.6438 12.6875C28.9566 12.6875 27.5883 14.003 27.5883 15.625C27.5883 17.247 28.9566 18.5625 30.6438 18.5625L45.8357 18.5625C47.5228 18.5625 48.8913 17.247 48.8913 15.625C48.8913 14.003 47.5259 12.6875 45.8357 12.6875ZM51.9468 0.937504L30.6438 0.937506C28.9566 0.937506 27.5883 2.25301 27.5883 3.87501C27.5883 5.49701 28.9566 6.81251 30.6438 6.81251L51.9468 6.8125C53.634 6.8125 55.0024 5.497 55.0024 3.875C55.0024 2.253 53.6371 0.937504 51.9468 0.937504ZM14.478 1.85091C13.3207 0.633706 11.1303 0.633706 9.97202 1.85091L1.65522 10.6716C0.429625 11.8705 0.513225 13.734 1.75742 14.8264C2.34372 15.3431 3.08373 15.5987 3.82083 15.5987C4.64893 15.5987 5.47272 15.2771 6.07522 14.645L9.16902 11.3932L9.16903 39.1159C9.16903 40.7499 10.5344 42.0625 12.2245 42.0625C13.9147 42.0625 15.2801 40.7472 15.2801 39.1223L15.2801 11.3932L18.3739 14.6428C19.5197 15.8361 21.4485 15.9279 22.6898 14.8264C23.934 13.7294 24.0171 11.8687 22.8778 10.6707L14.478 1.85091Z" fill="#FAFAFA" fill-opacity="0.6"/>
</g>
<defs>
<clipPath id="clip0_20_228">
<rect width="55" height="43" fill="white" transform="translate(55 43) rotate(180)"/>
</clipPath>
</defs>
</svg>
